<svg width="220" height="220" viewBox="0 0 220 220" fill="none" xmlns="http://www.w3.org/2000/svg">
  <!-- Background -->
  <circle cx="110" cy="110" r="110" fill="#E8F7FF"/>
  <!-- Face -->
  <ellipse cx="110" cy="100" rx="62" ry="70" fill="#FFE2B4" stroke="#E5B279" stroke-width="4"/>
  <!-- Hair (blonde, playful, stylized) -->
  <path d="M60,46 Q88,20 110,40 Q132,20 160,46 Q149,28 128,36 Q110,24 92,36 Q71,28 60,46Z" fill="#FFE066" stroke="#EAD55A" stroke-width="3"/>
  <ellipse cx="90" cy="50" rx="12" ry="6" fill="#FFEB86"/>
  <ellipse cx="130" cy="50" rx="12" ry="6" fill="#FFEB86"/>
  <!-- Ears -->
  <ellipse cx="47" cy="110" rx="12" ry="18" fill="#FFE2B4" stroke="#E5B279" stroke-width="2"/>
  <ellipse cx="173" cy="110" rx="12" ry="18" fill="#FFE2B4" stroke="#E5B279" stroke-width="2"/>
  <!-- Eyebrows -->
  <rect x="78" y="80" width="22" height="6" rx="3" fill="#EAD55A"/>
  <rect x="120" y="80" width="22" height="6" rx="3" fill="#EAD55A"/>
  <!-- Eyes (big, green, shiny) -->
  <ellipse cx="88" cy="110" rx="13" ry="15" fill="#fff"/>
  <ellipse cx="132" cy="110" rx="13" ry="15" fill="#fff"/>
  <ellipse cx="88" cy="113" rx="7" ry="8" fill="#38B94C"/>
  <ellipse cx="132" cy="113" rx="7" ry="8" fill="#38B94C"/>
  <ellipse cx="90" cy="110" rx="2" ry="2.5" fill="#fff" opacity="0.7"/>
  <ellipse cx="134" cy="110" rx="2" ry="2.5" fill="#fff" opacity="0.7"/>
  <!-- Nose -->
  <ellipse cx="110" cy="128" rx="7" ry="4" fill="#FFD1A3"/>
  <!-- Smile (big, happy) -->
  <path d="M95 137 Q110 155 125 137" stroke="#E59A68" stroke-width="5" fill="none" stroke-linecap="round"/>
  <!-- Blush -->
  <ellipse cx="80" cy="132" rx="7" ry="3.5" fill="#FFC3B0" opacity="0.7"/>
  <ellipse cx="140" cy="132" rx="7" ry="3.5" fill="#FFC3B0" opacity="0.7"/>
  <!-- Shirt (brighter, more playful) -->
  <rect x="65" y="172" width="90" height="32" rx="16" fill="#5DD8FF"/>
  <!-- Book (centered, "reading" pose) -->
  <rect x="95" y="165" width="30" height="24" rx="6" fill="#FFF8DC" stroke="#FFB347" stroke-width="3"/>
  <rect x="109" y="165" width="2" height="24" fill="#FFB347"/>
  <!-- Book lines -->
  <rect x="103" y="175" width="10" height="2" fill="#FFD580"/>
  <rect x="117" y="175" width="10" height="2" fill="#FFD580"/>
  <!-- Hands holding book -->
  <ellipse cx="102" cy="189" rx="7" ry="4.5" fill="#FFE2B4" stroke="#E5B279" stroke-width="2"/>
  <ellipse cx="118" cy="189" rx="7" ry="4.5" fill="#FFE2B4" stroke="#E5B279" stroke-width="2"/>
</svg>
